<svg width="34" height="42" viewBox="0 0 34 42" fill="none" xmlns="http://www.w3.org/2000/svg"><mask id="a" fill="#fff"><path d="M6.583 10.583a4.167 4.167 0 014.167-4.167h12.5a4.167 4.167 0 014.167 4.167v2.083a4.167 4.167 0 01-4.167 4.167h-12.5a4.167 4.167 0 01-4.167-4.166v-2.084zm4.167-1.042a1.042 1.042 0 00-1.042 1.042v2.083a1.042 1.042 0 001.042 1.042h12.5a1.042 1.042 0 001.042-1.042v-2.083a1.042 1.042 0 00-1.042-1.042h-12.5zM9.188 26.209a2.604 2.604 0 100-5.208 2.604 2.604 0 000 5.208zm2.604 5.73a2.604 2.604 0 11-5.209 0 2.604 2.604 0 015.209 0zm13.02-5.73a2.604 2.604 0 100-5.208 2.604 2.604 0 000 5.208zm2.605 5.73a2.604 2.604 0 11-5.209 0 2.604 2.604 0 015.209 0zM17 26.207A2.604 2.604 0 1017 21a2.604 2.604 0 000 5.208zm2.604 5.73a2.604 2.604 0 11-5.208 0 2.604 2.604 0 015.208 0zM7.104.166a6.77 6.77 0 00-6.77 6.77v28.125a6.77 6.77 0 006.77 6.771h19.792a6.772 6.772 0 006.77-6.77V6.936a6.77 6.77 0 00-6.77-6.77H7.104zm-3.646 6.77A3.647 3.647 0 017.104 3.29h19.792a3.647 3.647 0 013.646 3.646v28.125a3.645 3.645 0 01-3.646 3.646H7.104a3.646 3.646 0 01-3.646-3.646V6.937z"/></mask><path d="M6.583 10.583a4.167 4.167 0 014.167-4.167h12.5a4.167 4.167 0 014.167 4.167v2.083a4.167 4.167 0 01-4.167 4.167h-12.5a4.167 4.167 0 01-4.167-4.166v-2.084zm4.167-1.042a1.042 1.042 0 00-1.042 1.042v2.083a1.042 1.042 0 001.042 1.042h12.5a1.042 1.042 0 001.042-1.042v-2.083a1.042 1.042 0 00-1.042-1.042h-12.5zM9.188 26.209a2.604 2.604 0 100-5.208 2.604 2.604 0 000 5.208zm2.604 5.73a2.604 2.604 0 11-5.209 0 2.604 2.604 0 015.209 0zm13.02-5.73a2.604 2.604 0 100-5.208 2.604 2.604 0 000 5.208zm2.605 5.73a2.604 2.604 0 11-5.209 0 2.604 2.604 0 015.209 0zM17 26.207A2.604 2.604 0 1017 21a2.604 2.604 0 000 5.208zm2.604 5.73a2.604 2.604 0 11-5.208 0 2.604 2.604 0 015.208 0zM7.104.166a6.77 6.77 0 00-6.77 6.77v28.125a6.77 6.77 0 006.77 6.771h19.792a6.772 6.772 0 006.77-6.77V6.936a6.77 6.77 0 00-6.77-6.77H7.104zm-3.646 6.77A3.647 3.647 0 017.104 3.29h19.792a3.647 3.647 0 013.646 3.646v28.125a3.645 3.645 0 01-3.646 3.646H7.104a3.646 3.646 0 01-3.646-3.646V6.937z" fill="#B02929" stroke="#fff" stroke-width=".4" mask="url(#a)"/></svg>