<svg width="50" height="50" viewBox="0 0 50 50" fill="none" xmlns="http://www.w3.org/2000/svg"><path d="M26.026 31.778l.112.224.224-.112c.18-.09.362-.137.574-.19l.009-.002a3.26 3.26 0 00.631-.207 4.44 4.44 0 011.762.105c.575.15 1.049.394 1.319.664.268.269.33.414.426.642.04.093.084.2.152.334l.054.11.12.024c.952.19 1.674.941 1.674 1.838 0 .568-.188 1.022-.5 1.334-.31.311-.765.5-1.333.5h-1.667c-.908 0-1.655-.737-1.84-1.478l-.076-.302-.279.14-.004.001c-.205.103-.419.21-.607.317a2.399 2.399 0 00-.495.353c-.59.59-1.363.968-2.115.968-.214 0-.348 0-.48-.022a1.518 1.518 0 01-.436-.153c-1.144-.77-1.506-2.09-.944-3.213l.18-.362h-.404c-.165 0-.316.077-.408.123a2.38 2.38 0 01-.016.008c-.119.06-.167.078-.2.078h-.104l-.073.073c-.224.223-.4.456-.52.726a2.19 2.19 0 00-.179.909c0 .44-.222.9-.577 1.256-.356.355-.817.577-1.256.577h-.025l-.024.005c-.422.085-.864-.081-1.213-.406-.348-.326-.571-.783-.571-1.224 0-2.008 1.006-4.004 2.589-4.995 1.993-1.195 4.369-.99 5.948.386.078.08.167.21.266.384.1.175.201.377.306.587zm15.182-13.862v.104l.074.073c.13.13.135.244.135.448v21.042c0 3.404-2.597 6-6 6H14.583c-3.403 0-6-2.596-6-6V10.416c0-3.398 2.594-6.004 6.008-6.208h12.397c.256.208.52.208.71.208h.123c.105.087.208.138.29.18l.006.002a.852.852 0 01.248.162l12.5 12.5c.107.107.198.198.263.285.067.09.08.14.08.163v.208zm-11.865-6.843l-.426-.427v3.937c0 .682.228 1.27.646 1.687.418.418 1.005.646 1.687.646h3.937l-.427-.426-5.417-5.417zm-4.093-2.74v-.25H14.583c-.681 0-1.27.228-1.687.646-.418.418-.646 1.006-.646 1.687v29.167c0 .682.228 1.27.646 1.687.418.418 1.005.646 1.687.646h20.834c.681 0 1.27-.228 1.687-.646.418-.418.646-1.005.646-1.687v-19h-6.5c-3.404 0-6-2.596-6-6v-6.25zm-4.417 12.25H18.75c-.568 0-1.022-.188-1.334-.5-.311-.311-.5-.765-.5-1.333 0-.569.189-1.023.5-1.334.312-.311.766-.5 1.334-.5h2.083c.569 0 1.023.189 1.334.5.311.311.5.765.5 1.334 0 .568-.189 1.022-.5 1.333-.311.312-.766.5-1.334.5z" fill="#B02929" stroke="#fff" stroke-width=".5"/></svg>