<svg width="86" height="15" viewBox="0 0 86 15" fill="none" xmlns="http://www.w3.org/2000/svg"><path d="M51.083 6.885L58.667 0h-5.084L46 6.885 53.917 15H59l-7.917-8.115zM67.319 15c-1.912 0-3.476-.32-4.692-.962-.963-.51-1.671-1.204-2.126-2.081A4.127 4.127 0 0160 9.993v-.176h4.411c.04.405.227.772.562 1.1.561.549 1.517.824 2.867.824 1.417 0 2.42-.197 3.008-.59.4-.274.601-.66.601-1.158 0-.405-.153-.72-.46-.942-.308-.222-.823-.334-1.545-.334h-4.772V5.753h4.752c.695 0 1.183-.125 1.464-.373.24-.197.36-.465.36-.805 0-.445-.186-.773-.56-.982-.522-.301-1.484-.452-2.888-.452-.789 0-1.397.06-1.825.177-.748.223-1.203.537-1.363.942l-.12.393H60.2v-.216c0-.589.14-1.152.422-1.688.387-.773 1.029-1.394 1.925-1.865C63.683.294 65.18 0 67.037 0h1.123c2.713 0 4.672.419 5.875 1.257.882.615 1.323 1.446 1.323 2.493v.137c0 .694-.227 1.296-.681 1.807-.361.392-.876.693-1.544.903.748.183 1.356.53 1.824 1.04.575.629.862 1.394.862 2.298v.137c0 1.361-.487 2.454-1.463 3.279C73.073 14.45 71.008 15 68.16 15h-.842zM78.34 5.34V2.376c.776 0 1.417-.033 1.925-.099.508-.078.93-.196 1.264-.353.334-.157.608-.373.822-.648.213-.275.4-.641.561-1.1H86v14.608h-4.11V5.34h-3.55z" fill="#B02929"/><path d="M26.779 3.306h-6.34c0 4.45-.238 7.4-.713 8.851-.278.847-.68 1.499-1.209 1.956-.687.591-1.704.887-3.05.887H14v-3.528h.139c.99 0 1.638-.397 1.941-1.19.146-.35.251-.82.317-1.411.08-.82.126-1.815.139-2.984.026-1.882.04-3.844.04-5.887H30.86v15h-4.08V3.306zM45.67 15l-7.092-8.125V15h-4.082V0h4.082v6.875L45.472 0h5.191l-7.661 6.885L51 15h-5.33zM0 15V0h13.5v4H4.875v11H0z" fill="#fff"/></svg>