<svg width="115" height="20" viewBox="0 0 115 20" fill="none" xmlns="http://www.w3.org/2000/svg"><path d="M68.31 9.18L78.45 0h-6.798l-10.14 9.18L72.098 20h6.797L68.31 9.18zM90.02 20c-2.557 0-4.648-.428-6.275-1.283-1.287-.68-2.234-1.605-2.842-2.775a5.49 5.49 0 01-.67-2.617v-.236h5.898c.054.541.304 1.03.751 1.466.75.733 2.029 1.1 3.834 1.1 1.895 0 3.236-.262 4.022-.786.537-.366.805-.881.805-1.544 0-.541-.206-.96-.617-1.257-.411-.297-1.1-.445-2.065-.445H86.48V7.67h6.355c.93 0 1.582-.166 1.957-.497.322-.262.483-.62.483-1.074 0-.593-.25-1.03-.751-1.308-.697-.402-1.984-.603-3.861-.603-1.055 0-1.868.079-2.44.236-1.001.297-1.609.716-1.823 1.257l-.161.523H80.5v-.288c0-.785.187-1.536.563-2.251.518-1.03 1.376-1.859 2.574-2.487C85.158.393 87.159 0 89.644 0h1.501c3.629 0 6.248.558 7.856 1.675 1.18.82 1.77 1.929 1.77 3.325v.183a3.5 3.5 0 01-.912 2.409c-.482.523-1.17.925-2.064 1.204 1.001.244 1.814.707 2.44 1.387.769.838 1.153 1.859 1.153 3.063v.183c0 1.815-.653 3.273-1.958 4.372C97.715 19.267 94.953 20 91.145 20H90.02zm14.737-12.88V3.168c1.037 0 1.895-.044 2.575-.131.679-.105 1.242-.262 1.689-.472a2.96 2.96 0 001.099-.863c.286-.367.536-.856.751-1.466H115v19.476h-5.497V7.12h-4.746z" fill="#B02929"/><path d="M35.809 4.409H27.33c0 5.932-.318 9.865-.954 11.8-.37 1.13-.91 1.999-1.616 2.608-.918.789-2.278 1.183-4.08 1.183h-1.96v-4.704h.185c1.325 0 2.19-.529 2.597-1.586.194-.466.335-1.094.424-1.882.106-1.093.167-2.42.185-3.979.035-2.508.053-5.125.053-7.849h19.102v20h-5.458V4.409zM61.071 20L51.587 9.167V20h-5.458V0h5.458v9.167L60.807 0h6.94L57.502 9.18 68.198 20H61.07zM0 20V0h18.052v5.333H6.52V20H0z" fill="#333"/></svg>