<svg width="38" height="46" viewBox="0 0 38 46" fill="none" xmlns="http://www.w3.org/2000/svg"><path d="M27.65 19.4a8.083 8.083 0 11-16.167 0 8.083 8.083 0 0116.167 0zm-4.96 3.123a4.417 4.417 0 10-6.247-6.247 4.417 4.417 0 006.247 6.247z" fill="#B02929" stroke="#fff" stroke-width=".5"/><path d="M29.744 29.062l-.181-.172.18.172a14.833 14.833 0 10-20.972.515l.173-.181-.173.18 10.563 10.057.18.172.173-.18 10.057-10.563zm-23.5 3.17a18.5 18.5 0 1126.154-.642L19.641 44.988 6.243 32.231z" fill="#B02929" stroke="#fff" stroke-width=".5"/></svg>