<svg width="46" height="46" viewBox="0 0 46 46" fill="none" xmlns="http://www.w3.org/2000/svg"><path d="M19.988 11L12.94 2.865c-.813-.938-2.303-.934-3.246.012L3.898 8.683c-1.725 1.727-2.219 4.292-1.22 6.348a60.848 60.848 0 0028.251 28.292c2.054.998 4.617.504 6.342-1.223l5.85-5.86c.948-.948.95-2.446.004-3.259l-8.167-7.01c-.854-.733-2.18-.638-3.037.22l-2.842 2.847a.963.963 0 01-1.152.183A30.327 30.327 0 0116.76 18.04a.965.965 0 01.184-1.155l2.833-2.835c.858-.863.952-2.196.21-3.052V11z" stroke="#B02929" stroke-width="3" stroke-linecap="round" stroke-linejoin="round"/></svg>