<svg width="50" height="50" viewBox="0 0 50 50" fill="none" xmlns="http://www.w3.org/2000/svg"><path d="M48.047 23.43l-.002-.04a1.158 1.158 0 00-.008-.094l-.006-.043a1.162 1.162 0 00-.062-.23c-.002-.008-.003-.014-.006-.02l-.008-.022-2.724-6.81a2.722 2.722 0 00-2.539-1.718h-7.145V12.5a1.172 1.172 0 00-1.172-1.172H4.687a2.738 2.738 0 00-2.734 2.735v21.874a2.738 2.738 0 002.734 2.735H7.54a5.86 5.86 0 0011.483 0h11.954a5.86 5.86 0 0011.483 0h2.852a2.738 2.738 0 002.735-2.734V23.43zm-5.355-6.633a.388.388 0 01.363.245l2.089 5.224h-9.597v-5.47h7.145zM4.687 13.672h28.516v13.281H4.297v-12.89a.39.39 0 01.39-.391zm-.39 22.265v-6.64h28.906v3.519a5.87 5.87 0 00-2.226 3.512H19.023a5.86 5.86 0 00-11.483 0H4.687a.39.39 0 01-.39-.39zm8.984 5.079a3.515 3.515 0 110-7.031 3.515 3.515 0 010 7.03zm23.438 0a3.515 3.515 0 110-7.031 3.515 3.515 0 010 7.03zm8.984-5.078a.39.39 0 01-.39.39H42.46a5.863 5.863 0 00-6.913-4.57V24.61h10.156v11.328z" fill="#B02929"/></svg>